<?xml version="1.0" encoding="UTF-8" standalone="no"?>
<!DOCTYPE svg PUBLIC "-//W3C//DTD SVG 1.1//EN"
 "http://www.w3.org/Graphics/SVG/1.1/DTD/svg11.dtd">
<!-- Generated by graphviz version 2.40.1 (20161225.0304)
 -->
<!-- Title: dependencies Pages: 1 -->
<svg width="555pt" height="284pt"
 viewBox="0.00 0.00 555.00 284.00" xmlns="http://www.w3.org/2000/svg" xmlns:xlink="http://www.w3.org/1999/xlink">
<g id="graph0" class="graph" transform="scale(1 1) rotate(0) translate(4 280)">
<title>dependencies</title>
<polygon fill="#ffffff" stroke="transparent" points="-4,4 -4,-280 551,-280 551,4 -4,4"/>
<text text-anchor="start" x="252.5091" y="-42.4" font-family="sans-serif" font-weight="bold" font-size="14.00" fill="#000000">Legend</text>
<polygon fill="#ffffb3" stroke="transparent" points="39.5,-10 39.5,-30 59.5,-30 59.5,-10 39.5,-10"/>
<text text-anchor="start" x="63.129" y="-15.4" font-family="sans-serif" font-size="14.00" fill="#000000"> &#160;Declarations</text>
<polygon fill="#8dd3c7" stroke="transparent" points="152.5,-10 152.5,-30 172.5,-30 172.5,-10 152.5,-10"/>
<text text-anchor="start" x="176.2251" y="-15.4" font-family="sans-serif" font-size="14.00" fill="#000000"> &#160;Module</text>
<polygon fill="#80b1d3" stroke="transparent" points="238.5,-10 238.5,-30 258.5,-30 258.5,-10 238.5,-10"/>
<text text-anchor="start" x="262.2812" y="-15.4" font-family="sans-serif" font-size="14.00" fill="#000000"> &#160;Bootstrap</text>
<polygon fill="#fdb462" stroke="transparent" points="335.5,-10 335.5,-30 355.5,-30 355.5,-10 335.5,-10"/>
<text text-anchor="start" x="359.1732" y="-15.4" font-family="sans-serif" font-size="14.00" fill="#000000"> &#160;Providers</text>
<polygon fill="#fb8072" stroke="transparent" points="431.5,-10 431.5,-30 451.5,-30 451.5,-10 431.5,-10"/>
<text text-anchor="start" x="455.2258" y="-15.4" font-family="sans-serif" font-size="14.00" fill="#000000"> &#160;Exports</text>
<g id="clust1" class="cluster">
<title>cluster_AppModule</title>
<polygon fill="none" stroke="#000000" stroke-dasharray="1,5" points="8,-70 8,-268 539,-268 539,-70 8,-70"/>
</g>
<g id="clust3" class="cluster">
<title>cluster_AppModule_imports</title>
<polygon fill="none" stroke="#000000" points="16,-78 16,-130 531,-130 531,-78 16,-78"/>
</g>
<g id="clust5" class="cluster">
<title>cluster_AppModule_bootstrap</title>
<polygon fill="none" stroke="#000000" points="233,-208 233,-260 357,-260 357,-208 233,-208"/>
</g>
<!-- ! -->
<g id="node1" class="node">
<title>!</title>
<polygon fill="#8dd3c7" stroke="#000000" points="523,-122 520,-126 499,-126 496,-122 469,-122 469,-86 523,-86 523,-122"/>
<text text-anchor="middle" x="496" y="-99.8" font-family="Times,serif" font-size="14.00" fill="#000000">!</text>
</g>
<!-- AppModule -->
<g id="node6" class="node">
<title>AppModule</title>
<polygon fill="#8dd3c7" stroke="#000000" points="336.6571,-187 333.6571,-191 312.6571,-191 309.6571,-187 253.3429,-187 253.3429,-151 336.6571,-151 336.6571,-187"/>
<text text-anchor="middle" x="295" y="-164.8" font-family="Times,serif" font-size="14.00" fill="#000000">AppModule</text>
</g>
<!-- !&#45;&gt;AppModule -->
<g id="edge1" class="edge">
<title>!&#45;&gt;AppModule</title>
<path fill="none" stroke="#000000" d="M496,-122.2843C496,-143.3211 496,-175 496,-175 496,-175 347.1362,-175 347.1362,-175"/>
<polygon fill="#000000" stroke="#000000" points="347.1362,-171.5001 337.1362,-175 347.1362,-178.5001 347.1362,-171.5001"/>
</g>
<!-- AboutModule -->
<g id="node2" class="node">
<title>AboutModule</title>
<polygon fill="#8dd3c7" stroke="#000000" points="451.0481,-122 448.0481,-126 427.0481,-126 424.0481,-122 356.9519,-122 356.9519,-86 451.0481,-86 451.0481,-122"/>
<text text-anchor="middle" x="404" y="-99.8" font-family="Times,serif" font-size="14.00" fill="#000000">AboutModule</text>
</g>
<!-- AboutModule&#45;&gt;AppModule -->
<g id="edge2" class="edge">
<title>AboutModule&#45;&gt;AppModule</title>
<path fill="none" stroke="#000000" d="M404,-122.0225C404,-139.3734 404,-163 404,-163 404,-163 346.8305,-163 346.8305,-163"/>
<polygon fill="#000000" stroke="#000000" points="346.8305,-159.5001 336.8305,-163 346.8305,-166.5001 346.8305,-159.5001"/>
</g>
<!-- CoreModule -->
<g id="node3" class="node">
<title>CoreModule</title>
<polygon fill="#8dd3c7" stroke="#000000" points="338.2619,-122 335.2619,-126 314.2619,-126 311.2619,-122 251.7381,-122 251.7381,-86 338.2619,-86 338.2619,-122"/>
<text text-anchor="middle" x="295" y="-99.8" font-family="Times,serif" font-size="14.00" fill="#000000">CoreModule</text>
</g>
<!-- CoreModule&#45;&gt;AppModule -->
<g id="edge3" class="edge">
<title>CoreModule&#45;&gt;AppModule</title>
<path fill="none" stroke="#000000" d="M295,-122.1061C295,-122.1061 295,-140.991 295,-140.991"/>
<polygon fill="#000000" stroke="#000000" points="291.5001,-140.9909 295,-150.991 298.5001,-140.991 291.5001,-140.9909"/>
</g>
<!-- HomeModule -->
<g id="node4" class="node">
<title>HomeModule</title>
<polygon fill="#8dd3c7" stroke="#000000" points="233.7619,-122 230.7619,-126 209.7619,-126 206.7619,-122 140.2381,-122 140.2381,-86 233.7619,-86 233.7619,-122"/>
<text text-anchor="middle" x="187" y="-99.8" font-family="Times,serif" font-size="14.00" fill="#000000">HomeModule</text>
</g>
<!-- HomeModule&#45;&gt;AppModule -->
<g id="edge4" class="edge">
<title>HomeModule&#45;&gt;AppModule</title>
<path fill="none" stroke="#000000" d="M187,-122.0225C187,-139.3734 187,-163 187,-163 187,-163 243.2444,-163 243.2444,-163"/>
<polygon fill="#000000" stroke="#000000" points="243.2444,-166.5001 253.2444,-163 243.2443,-159.5001 243.2444,-166.5001"/>
</g>
<!-- PeopleModule -->
<g id="node5" class="node">
<title>PeopleModule</title>
<polygon fill="#8dd3c7" stroke="#000000" points="121.6528,-122 118.6528,-126 97.6528,-126 94.6528,-122 24.3472,-122 24.3472,-86 121.6528,-86 121.6528,-122"/>
<text text-anchor="middle" x="73" y="-99.8" font-family="Times,serif" font-size="14.00" fill="#000000">PeopleModule</text>
</g>
<!-- PeopleModule&#45;&gt;AppModule -->
<g id="edge5" class="edge">
<title>PeopleModule&#45;&gt;AppModule</title>
<path fill="none" stroke="#000000" d="M73,-122.2843C73,-143.3211 73,-175 73,-175 73,-175 243.2435,-175 243.2435,-175"/>
<polygon fill="#000000" stroke="#000000" points="243.2435,-178.5001 253.2435,-175 243.2435,-171.5001 243.2435,-178.5001"/>
</g>
<!-- AppComponent  -->
<g id="node7" class="node">
<title>AppComponent </title>
<polygon fill="#80b1d3" stroke="#000000" points="349.439,-252 240.561,-252 240.561,-216 349.439,-216 349.439,-252"/>
<text text-anchor="middle" x="295" y="-229.8" font-family="Times,serif" font-size="14.00" fill="#000000">AppComponent </text>
</g>
<!-- AppModule&#45;&gt;AppComponent  -->
<g id="edge6" class="edge">
<title>AppModule&#45;&gt;AppComponent </title>
<path fill="none" stroke="#000000" stroke-dasharray="1,5" d="M295,-187.1061C295,-187.1061 295,-205.991 295,-205.991"/>
<polygon fill="#000000" stroke="#000000" points="291.5001,-205.9909 295,-215.991 298.5001,-205.991 291.5001,-205.9909"/>
</g>
</g>
</svg>
