<?xml version="1.0" encoding="UTF-8" standalone="no"?>
<!DOCTYPE svg PUBLIC "-//W3C//DTD SVG 1.1//EN"
 "http://www.w3.org/Graphics/SVG/1.1/DTD/svg11.dtd">
<!-- Generated by graphviz version 2.40.1 (20161225.0304)
 -->
<!-- Title: dependencies Pages: 1 -->
<svg width="1356pt" height="366pt"
 viewBox="0.00 0.00 1356.00 366.00" xmlns="http://www.w3.org/2000/svg" xmlns:xlink="http://www.w3.org/1999/xlink">
<g id="graph0" class="graph" transform="scale(1 1) rotate(0) translate(4 362)">
<title>dependencies</title>
<polygon fill="#ffffff" stroke="transparent" points="-4,4 -4,-362 1352,-362 1352,4 -4,4"/>
<text text-anchor="start" x="653.0091" y="-42.4" font-family="sans-serif" font-weight="bold" font-size="14.00" fill="#000000">Legend</text>
<polygon fill="#ffffb3" stroke="transparent" points="440,-10 440,-30 460,-30 460,-10 440,-10"/>
<text text-anchor="start" x="463.629" y="-15.4" font-family="sans-serif" font-size="14.00" fill="#000000"> &#160;Declarations</text>
<polygon fill="#8dd3c7" stroke="transparent" points="553,-10 553,-30 573,-30 573,-10 553,-10"/>
<text text-anchor="start" x="576.7251" y="-15.4" font-family="sans-serif" font-size="14.00" fill="#000000"> &#160;Module</text>
<polygon fill="#80b1d3" stroke="transparent" points="639,-10 639,-30 659,-30 659,-10 639,-10"/>
<text text-anchor="start" x="662.7812" y="-15.4" font-family="sans-serif" font-size="14.00" fill="#000000"> &#160;Bootstrap</text>
<polygon fill="#fdb462" stroke="transparent" points="736,-10 736,-30 756,-30 756,-10 736,-10"/>
<text text-anchor="start" x="759.6732" y="-15.4" font-family="sans-serif" font-size="14.00" fill="#000000"> &#160;Providers</text>
<polygon fill="#fb8072" stroke="transparent" points="832,-10 832,-30 852,-30 852,-10 832,-10"/>
<text text-anchor="start" x="855.7258" y="-15.4" font-family="sans-serif" font-size="14.00" fill="#000000"> &#160;Exports</text>
<g id="clust1" class="cluster">
<title>cluster_AboutModule</title>
<polygon fill="none" stroke="#000000" stroke-dasharray="1,5" points="382,-70 382,-282 562,-282 562,-70 382,-70"/>
</g>
<g id="clust2" class="cluster">
<title>cluster_AboutModule_declarations</title>
<polygon fill="none" stroke="#000000" points="391,-78 391,-130 551,-130 551,-78 391,-78"/>
</g>
<g id="clust5" class="cluster">
<title>cluster_AboutModule_exports</title>
<polygon fill="none" stroke="#000000" points="390,-222 390,-274 554,-274 554,-222 390,-222"/>
</g>
<g id="clust8" class="cluster">
<title>cluster_AppModule</title>
<polygon fill="none" stroke="#000000" stroke-dasharray="1,5" points="570,-146 570,-350 988,-350 988,-146 570,-146"/>
</g>
<g id="clust10" class="cluster">
<title>cluster_AppModule_imports</title>
<polygon fill="none" stroke="#000000" points="578,-154 578,-206 980,-206 980,-154 578,-154"/>
</g>
<g id="clust12" class="cluster">
<title>cluster_AppModule_bootstrap</title>
<polygon fill="none" stroke="#000000" points="711,-290 711,-342 835,-342 835,-290 711,-290"/>
</g>
<g id="clust14" class="cluster">
<title>cluster_CoreComponentsModule</title>
<polygon fill="none" stroke="#000000" stroke-dasharray="1,5" points="200,-154 200,-206 374,-206 374,-154 200,-154"/>
</g>
<g id="clust21" class="cluster">
<title>cluster_CoreModule</title>
<polygon fill="none" stroke="#000000" stroke-dasharray="1,5" points="748,-70 748,-138 886,-138 886,-70 748,-70"/>
</g>
<g id="clust22" class="cluster">
<title>cluster_CoreModule_declarations</title>
<polygon fill="none" stroke="#000000" points="756,-78 756,-130 878,-130 878,-78 756,-78"/>
</g>
<g id="clust28" class="cluster">
<title>cluster_HomeModule</title>
<polygon fill="none" stroke="#000000" stroke-dasharray="1,5" points="996,-214 996,-282 1340,-282 1340,-214 996,-214"/>
</g>
<g id="clust29" class="cluster">
<title>cluster_HomeModule_declarations</title>
<polygon fill="none" stroke="#000000" points="1174,-222 1174,-274 1332,-274 1332,-222 1174,-222"/>
</g>
<g id="clust32" class="cluster">
<title>cluster_HomeModule_exports</title>
<polygon fill="none" stroke="#000000" points="1004,-222 1004,-274 1166,-274 1166,-222 1004,-222"/>
</g>
<g id="clust35" class="cluster">
<title>cluster_PeopleComponentsModule</title>
<polygon fill="none" stroke="#000000" stroke-dasharray="1,5" points="8,-154 8,-206 192,-206 192,-154 8,-154"/>
</g>
<!-- AboutPageComponent -->
<g id="node1" class="node">
<title>AboutPageComponent</title>
<polygon fill="#ffffb3" stroke="#000000" points="542.5421,-122 399.4579,-122 399.4579,-86 542.5421,-86 542.5421,-122"/>
<text text-anchor="middle" x="471" y="-99.8" font-family="Times,serif" font-size="14.00" fill="#000000">AboutPageComponent</text>
</g>
<!-- AboutModule -->
<g id="node2" class="node">
<title>AboutModule</title>
<polygon fill="#8dd3c7" stroke="#000000" points="519.0481,-198 516.0481,-202 495.0481,-202 492.0481,-198 424.9519,-198 424.9519,-162 519.0481,-162 519.0481,-198"/>
<text text-anchor="middle" x="472" y="-175.8" font-family="Times,serif" font-size="14.00" fill="#000000">AboutModule</text>
</g>
<!-- AboutPageComponent&#45;&gt;AboutModule -->
<g id="edge1" class="edge">
<title>AboutPageComponent&#45;&gt;AboutModule</title>
<path fill="none" stroke="#000000" d="M472,-122.0109C472,-122.0109 472,-151.855 472,-151.855"/>
<polygon fill="#000000" stroke="#000000" points="468.5001,-151.8549 472,-161.855 475.5001,-151.855 468.5001,-151.8549"/>
</g>
<!-- PeopleModule -->
<g id="node7" class="node">
<title>PeopleModule</title>
<polygon fill="#8dd3c7" stroke="#000000" points="683.6528,-198 680.6528,-202 659.6528,-202 656.6528,-198 586.3472,-198 586.3472,-162 683.6528,-162 683.6528,-198"/>
<text text-anchor="middle" x="635" y="-175.8" font-family="Times,serif" font-size="14.00" fill="#000000">PeopleModule</text>
</g>
<!-- AboutPageComponent&#45;&gt;PeopleModule -->
<g id="edge17" class="edge">
<title>AboutPageComponent&#45;&gt;PeopleModule</title>
<path fill="none" stroke="#000000" d="M527.1059,-122.308C527.1059,-142.1455 527.1059,-171 527.1059,-171 527.1059,-171 576.1039,-171 576.1039,-171"/>
<polygon fill="#000000" stroke="#000000" points="576.1039,-174.5001 586.1039,-171 576.1039,-167.5001 576.1039,-174.5001"/>
</g>
<!-- CoreComponentsModule -->
<g id="node10" class="node">
<title>CoreComponentsModule</title>
<polygon fill="#8dd3c7" stroke="#000000" points="365.5393,-198 362.5393,-202 341.5393,-202 338.5393,-198 208.4607,-198 208.4607,-162 365.5393,-162 365.5393,-198"/>
<text text-anchor="middle" x="287" y="-175.8" font-family="Times,serif" font-size="14.00" fill="#000000">CoreComponentsModule</text>
</g>
<!-- AboutPageComponent&#45;&gt;CoreComponentsModule -->
<g id="edge9" class="edge">
<title>AboutPageComponent&#45;&gt;CoreComponentsModule</title>
<path fill="none" stroke="#000000" d="M407.7284,-122.0267C407.7284,-142.7672 407.7284,-174 407.7284,-174 407.7284,-174 375.8423,-174 375.8423,-174"/>
<polygon fill="#000000" stroke="#000000" points="375.8423,-170.5001 365.8423,-174 375.8422,-177.5001 375.8423,-170.5001"/>
</g>
<!-- PeopleComponentsModule -->
<g id="node14" class="node">
<title>PeopleComponentsModule</title>
<polygon fill="#8dd3c7" stroke="#000000" points="184.4297,-198 181.4297,-202 160.4297,-202 157.4297,-198 15.5703,-198 15.5703,-162 184.4297,-162 184.4297,-198"/>
<text text-anchor="middle" x="100" y="-175.8" font-family="Times,serif" font-size="14.00" fill="#000000">PeopleComponentsModule</text>
</g>
<!-- AboutPageComponent&#45;&gt;PeopleComponentsModule -->
<g id="edge15" class="edge">
<title>AboutPageComponent&#45;&gt;PeopleComponentsModule</title>
<path fill="none" stroke="#000000" d="M399.0276,-104C291.1387,-104 100,-104 100,-104 100,-104 100,-151.9891 100,-151.9891"/>
<polygon fill="#000000" stroke="#000000" points="96.5001,-151.989 100,-161.9891 103.5001,-151.9891 96.5001,-151.989"/>
</g>
<!-- AboutPageComponent  -->
<g id="node3" class="node">
<title>AboutPageComponent </title>
<polygon fill="#fb8072" stroke="#000000" points="545.5414,-266 398.4586,-266 398.4586,-230 545.5414,-230 545.5414,-266"/>
<text text-anchor="middle" x="472" y="-243.8" font-family="Times,serif" font-size="14.00" fill="#000000">AboutPageComponent </text>
</g>
<!-- AboutModule&#45;&gt;AboutPageComponent  -->
<g id="edge2" class="edge">
<title>AboutModule&#45;&gt;AboutPageComponent </title>
<path fill="none" stroke="#000000" stroke-dasharray="5,2" d="M472,-198.2228C472,-198.2228 472,-219.7269 472,-219.7269"/>
<polygon fill="#000000" stroke="#000000" points="468.5001,-219.7269 472,-229.7269 475.5001,-219.727 468.5001,-219.7269"/>
</g>
<!-- AppModule -->
<g id="node8" class="node">
<title>AppModule</title>
<polygon fill="#8dd3c7" stroke="#000000" points="777.6571,-266 774.6571,-270 753.6571,-270 750.6571,-266 694.3429,-266 694.3429,-230 777.6571,-230 777.6571,-266"/>
<text text-anchor="middle" x="736" y="-243.8" font-family="Times,serif" font-size="14.00" fill="#000000">AppModule</text>
</g>
<!-- AboutModule&#45;&gt;AppModule -->
<g id="edge4" class="edge">
<title>AboutModule&#45;&gt;AppModule</title>
<path fill="none" stroke="#000000" d="M519.1986,-180C542.5684,-180 565.8473,-180 565.8473,-180 565.8473,-180 565.8473,-248 565.8473,-248 565.8473,-248 683.9398,-248 683.9398,-248"/>
<polygon fill="#000000" stroke="#000000" points="683.9398,-251.5001 693.9398,-248 683.9397,-244.5001 683.9398,-251.5001"/>
</g>
<!-- ! -->
<g id="node4" class="node">
<title>!</title>
<polygon fill="#8dd3c7" stroke="#000000" points="756,-198 753,-202 732,-202 729,-198 702,-198 702,-162 756,-162 756,-198"/>
<text text-anchor="middle" x="729" y="-175.8" font-family="Times,serif" font-size="14.00" fill="#000000">!</text>
</g>
<!-- !&#45;&gt;AppModule -->
<g id="edge3" class="edge">
<title>!&#45;&gt;AppModule</title>
<path fill="none" stroke="#000000" d="M729,-198.2228C729,-198.2228 729,-219.7269 729,-219.7269"/>
<polygon fill="#000000" stroke="#000000" points="725.5001,-219.7269 729,-229.7269 732.5001,-219.727 725.5001,-219.7269"/>
</g>
<!-- CoreModule -->
<g id="node5" class="node">
<title>CoreModule</title>
<polygon fill="#8dd3c7" stroke="#000000" points="860.2619,-198 857.2619,-202 836.2619,-202 833.2619,-198 773.7381,-198 773.7381,-162 860.2619,-162 860.2619,-198"/>
<text text-anchor="middle" x="817" y="-175.8" font-family="Times,serif" font-size="14.00" fill="#000000">CoreModule</text>
</g>
<!-- CoreModule&#45;&gt;AppModule -->
<g id="edge5" class="edge">
<title>CoreModule&#45;&gt;AppModule</title>
<path fill="none" stroke="#000000" d="M773.7328,-180C770.7828,-180 768.9499,-180 768.9499,-180 768.9499,-180 768.9499,-219.7772 768.9499,-219.7772"/>
<polygon fill="#000000" stroke="#000000" points="765.4499,-219.7772 768.9499,-229.7772 772.4499,-219.7773 765.4499,-219.7772"/>
</g>
<!-- AppComponent  -->
<g id="node9" class="node">
<title>AppComponent </title>
<polygon fill="#80b1d3" stroke="#000000" points="827.439,-334 718.561,-334 718.561,-298 827.439,-298 827.439,-334"/>
<text text-anchor="middle" x="773" y="-311.8" font-family="Times,serif" font-size="14.00" fill="#000000">AppComponent </text>
</g>
<!-- CoreModule&#45;&gt;AppComponent  -->
<g id="edge12" class="edge">
<title>CoreModule&#45;&gt;AppComponent </title>
<path fill="none" stroke="#000000" stroke-dasharray="5,2" d="M802.6489,-198.0597C802.6489,-198.0597 802.6489,-287.8656 802.6489,-287.8656"/>
<polygon fill="#000000" stroke="#000000" points="799.1489,-287.8655 802.6489,-297.8656 806.1489,-287.8656 799.1489,-287.8655"/>
</g>
<!-- HomeModule -->
<g id="node6" class="node">
<title>HomeModule</title>
<polygon fill="#8dd3c7" stroke="#000000" points="971.7619,-198 968.7619,-202 947.7619,-202 944.7619,-198 878.2381,-198 878.2381,-162 971.7619,-162 971.7619,-198"/>
<text text-anchor="middle" x="925" y="-175.8" font-family="Times,serif" font-size="14.00" fill="#000000">HomeModule</text>
</g>
<!-- HomeModule&#45;&gt;AppModule -->
<g id="edge6" class="edge">
<title>HomeModule&#45;&gt;AppModule</title>
<path fill="none" stroke="#000000" d="M909.3731,-198.2667C909.3731,-216.5552 909.3731,-242 909.3731,-242 909.3731,-242 787.9688,-242 787.9688,-242"/>
<polygon fill="#000000" stroke="#000000" points="787.9688,-238.5001 777.9688,-242 787.9687,-245.5001 787.9688,-238.5001"/>
</g>
<!-- HomePageComponent  -->
<g id="node13" class="node">
<title>HomePageComponent </title>
<polygon fill="#fb8072" stroke="#000000" points="1158.2562,-266 1011.7438,-266 1011.7438,-230 1158.2562,-230 1158.2562,-266"/>
<text text-anchor="middle" x="1085" y="-243.8" font-family="Times,serif" font-size="14.00" fill="#000000">HomePageComponent </text>
</g>
<!-- HomeModule&#45;&gt;HomePageComponent  -->
<g id="edge14" class="edge">
<title>HomeModule&#45;&gt;HomePageComponent </title>
<path fill="none" stroke="#000000" stroke-dasharray="5,2" d="M940.6269,-198.2921C940.6269,-220.2057 940.6269,-254 940.6269,-254 940.6269,-254 1001.5446,-254 1001.5446,-254"/>
<polygon fill="#000000" stroke="#000000" points="1001.5447,-257.5001 1011.5446,-254 1001.5446,-250.5001 1001.5447,-257.5001"/>
</g>
<!-- PeopleModule&#45;&gt;AboutPageComponent  -->
<g id="edge18" class="edge">
<title>PeopleModule&#45;&gt;AboutPageComponent </title>
<path fill="none" stroke="#000000" stroke-dasharray="5,2" d="M586.1417,-189C560.7416,-189 534.9383,-189 534.9383,-189 534.9383,-189 534.9383,-219.9775 534.9383,-219.9775"/>
<polygon fill="#000000" stroke="#000000" points="531.4384,-219.9774 534.9383,-229.9775 538.4384,-219.9775 531.4384,-219.9774"/>
</g>
<!-- PeopleModule&#45;&gt;AppModule -->
<g id="edge7" class="edge">
<title>PeopleModule&#45;&gt;AppModule</title>
<path fill="none" stroke="#000000" d="M683.7707,-180C692.0782,-180 698.0859,-180 698.0859,-180 698.0859,-180 698.0859,-219.7772 698.0859,-219.7772"/>
<polygon fill="#000000" stroke="#000000" points="694.586,-219.7772 698.0859,-229.7772 701.586,-219.7773 694.586,-219.7772"/>
</g>
<!-- AppModule&#45;&gt;AppComponent  -->
<g id="edge8" class="edge">
<title>AppModule&#45;&gt;AppComponent </title>
<path fill="none" stroke="#000000" stroke-dasharray="1,5" d="M748.1794,-266.2228C748.1794,-266.2228 748.1794,-287.7269 748.1794,-287.7269"/>
<polygon fill="#000000" stroke="#000000" points="744.6794,-287.7269 748.1794,-297.7269 751.6794,-287.727 744.6794,-287.7269"/>
</g>
<!-- CoreComponentsModule&#45;&gt;AboutPageComponent  -->
<g id="edge10" class="edge">
<title>CoreComponentsModule&#45;&gt;AboutPageComponent </title>
<path fill="none" stroke="#000000" stroke-dasharray="5,2" d="M365.8947,-186C392.7998,-186 416.2274,-186 416.2274,-186 416.2274,-186 416.2274,-219.7333 416.2274,-219.7333"/>
<polygon fill="#000000" stroke="#000000" points="412.7275,-219.7333 416.2274,-229.7333 419.7275,-219.7333 412.7275,-219.7333"/>
</g>
<!-- AppComponent -->
<g id="node11" class="node">
<title>AppComponent</title>
<polygon fill="#ffffb3" stroke="#000000" points="869.9399,-122 764.0601,-122 764.0601,-86 869.9399,-86 869.9399,-122"/>
<text text-anchor="middle" x="817" y="-99.8" font-family="Times,serif" font-size="14.00" fill="#000000">AppComponent</text>
</g>
<!-- AppComponent&#45;&gt;CoreModule -->
<g id="edge11" class="edge">
<title>AppComponent&#45;&gt;CoreModule</title>
<path fill="none" stroke="#000000" d="M817,-122.0109C817,-122.0109 817,-151.855 817,-151.855"/>
<polygon fill="#000000" stroke="#000000" points="813.5001,-151.8549 817,-161.855 820.5001,-151.855 813.5001,-151.8549"/>
</g>
<!-- HomePageComponent -->
<g id="node12" class="node">
<title>HomePageComponent</title>
<polygon fill="#ffffb3" stroke="#000000" points="1324.2562,-266 1181.7438,-266 1181.7438,-230 1324.2562,-230 1324.2562,-266"/>
<text text-anchor="middle" x="1253" y="-243.8" font-family="Times,serif" font-size="14.00" fill="#000000">HomePageComponent</text>
</g>
<!-- HomePageComponent&#45;&gt;HomeModule -->
<g id="edge13" class="edge">
<title>HomePageComponent&#45;&gt;HomeModule</title>
<path fill="none" stroke="#000000" d="M1253,-229.7772C1253,-209.6348 1253,-180 1253,-180 1253,-180 981.9944,-180 981.9944,-180"/>
<polygon fill="#000000" stroke="#000000" points="981.9944,-176.5001 971.9944,-180 981.9944,-183.5001 981.9944,-176.5001"/>
</g>
<!-- PeopleComponentsModule&#45;&gt;AboutPageComponent  -->
<g id="edge16" class="edge">
<title>PeopleComponentsModule&#45;&gt;AboutPageComponent </title>
<path fill="none" stroke="#000000" stroke-dasharray="5,2" d="M100,-198.2228C100,-218.3652 100,-248 100,-248 100,-248 388.06,-248 388.06,-248"/>
<polygon fill="#000000" stroke="#000000" points="388.06,-251.5001 398.06,-248 388.06,-244.5001 388.06,-251.5001"/>
</g>
</g>
</svg>
